<svg viewBox="0 0 50 76" xmlns="http://www.w3.org/2000/svg"><g fill="#221f20"><path d="m50 76h-50v-11.37h50zm-49-.51h48v-9.83h-48z"/><path d="m50 65.66h-50v-11.89h50zm-49-1h48v-9.86h-48z"/><path d="m50 54.8h-50v-11.88h50zm-49-1h48v-9.86h-48z"/><path d="m50 43.94h-50v-11.88h50zm-49-1h48v-9.86h-48z"/><path d="m50 33.08h-50v-11.88h50zm-49-1h48v-9.85h-48z"/><path d="m50 22.23h-50v-11.89h50zm-49-1h48v-9.86h-48z"/><path d="m50 11.37h-50v-11.37h50zm-49-1h48v-9.86h-48z"/><path d="m.51 6.65h29.08a2 2 0 0 1 2 2v3.22a2 2 0 0 1 -2 2h-29.08a0 0 0 0 1 0 0v-7.22a0 0 0 0 1 0 0z"/><path d="m.51 18.05h29.08a2 2 0 0 1 2 2v3.22a2 2 0 0 1 -2 2h-29.08a0 0 0 0 1 0 0v-7.22a0 0 0 0 1 0 0z"/><path d="m.51 39.77h29.08a2 2 0 0 1 2 2v3.23a2 2 0 0 1 -2 2h-29.08a0 0 0 0 1 0 0v-7.23a0 0 0 0 1 0 0z"/><path d="m.51 50.63h29.08a2 2 0 0 1 2 2v3.27a2 2 0 0 1 -2 2h-29.08a0 0 0 0 1 0 0v-7.27a0 0 0 0 1 0 0z"/><path d="m.51 61.48h29.08a2 2 0 0 1 2 2v3.22a2 2 0 0 1 -2 2h-29.08a0 0 0 0 1 0 0v-7.22a0 0 0 0 1 0 0z"/></g></svg>