<svg xmlns="http://www.w3.org/2000/svg" viewBox="0 0 50 76"><defs><style>.cls-1{fill:#221f20;}</style></defs><g id="Layer_3" data-name="Layer 3"><path class="cls-1" d="M50,76H0V64.63H50ZM1,75.49H49V65.66H1Z"/><path class="cls-1" d="M50,65.66H0V53.77H50Zm-49-1H49V54.8H1Z"/><path class="cls-1" d="M50,54.8H0V42.92H50Zm-49-1H49V43.94H1Z"/><path class="cls-1" d="M50,43.94H0V32.06H50Zm-49-1H49V33.08H1Z"/><path class="cls-1" d="M50,33.08H0V21.2H50Zm-49-1H49V22.23H1Z"/><path class="cls-1" d="M50,22.23H0V10.34H50Zm-49-1H49V11.37H1Z"/><path class="cls-1" d="M50,11.37H0V0H50Zm-49-1H49V.51H1Z"/><path class="cls-1" d="M.51,6.65H29.59a2,2,0,0,1,2,2v3.22a2,2,0,0,1-2,2H.51a0,0,0,0,1,0,0V6.65A0,0,0,0,1,.51,6.65Z"/><path class="cls-1" d="M.51,18.05H29.59a2,2,0,0,1,2,2v3.22a2,2,0,0,1-2,2H.51a0,0,0,0,1,0,0V18.05A0,0,0,0,1,.51,18.05Z"/><path class="cls-1" d="M.51,39.77H29.59a2,2,0,0,1,2,2V45a2,2,0,0,1-2,2H.51a0,0,0,0,1,0,0V39.77A0,0,0,0,1,.51,39.77Z"/><path class="cls-1" d="M.51,50.63H29.59a2,2,0,0,1,2,2V55.9a2,2,0,0,1-2,2H.51a0,0,0,0,1,0,0V50.63A0,0,0,0,1,.51,50.63Z"/><path class="cls-1" d="M.51,61.48H29.59a2,2,0,0,1,2,2v3.22a2,2,0,0,1-2,2H.51a0,0,0,0,1,0,0V61.48A0,0,0,0,1,.51,61.48Z"/></g></svg>