<svg xmlns="http://www.w3.org/2000/svg" viewBox="0 0 50 74"><defs><style>.cls-1{fill:#58595b}</style></defs><g id="Layer_3" data-name="Layer 3"><path class="cls-1" d="M50 76H0V65h50zM1 75h48v-9H1z"/><path class="cls-1" d="M50 66H0V54h50zM1 65h48V55H1z"/><path class="cls-1" d="M50 55H0V43h50zM1 54h48V44H1z"/><path class="cls-1" d="M50 44H0V32h50zM1 43h48V33H1z"/><path class="cls-1" d="M50 33H0V21h50zM1 32h48V22H1z"/><path class="cls-1" d="M50 22H0V10h50zM1 21h48V11H1z"/><path class="cls-1" d="M50 11H0V0h50zM1 10h48V1H1z"/><path class="cls-1" d="M1 7h29a2 2 0 0 1 2 2v3a2 2 0 0 1-2 2H1V7zM1 18h29a2 2 0 0 1 2 2v3a2 2 0 0 1-2 2H1v-7zM1 40h29a2 2 0 0 1 2 2v3a2 2 0 0 1-2 2H1v-7zM1 51h29a2 2 0 0 1 2 2v3a2 2 0 0 1-2 2H1v-7zM1 61h29a2 2 0 0 1 2 2v4a2 2 0 0 1-2 2H1v-8z"/></g></svg>