<svg height="512pt" preserveAspectRatio="xMidYMid meet" viewBox="0 0 512 512" width="512pt" xmlns="http://www.w3.org/2000/svg"><path d="m0 2560v-2560h2555 2555v2560 2560h-2555-2555zm750 871c0-930 4-1468 10-1502 13-68 54-127 110-158 37-21 61-25 152-29l108-5v-743-744h-440-440v2315 2315h250 250zm1320-17c0-1023 3-1478 11-1508 14-55 59-110 112-138 33-17 66-22 150-26l107-5v-743-744h-535-535v745 745h83c111 0 178 21 226 70 21 21 43 56 49 78 9 29 12 413 12 1516v1476h160 160zm1320-14c0-1645-5-1518 68-1593 46-48 109-67 219-67h83v-745-745h-530-530v745 745h83c116 0 175 19 225 74 22 24 45 61 51 82 8 27 11 496 11 1512v1472h160 160zm1470-835v-2315h-425-425v744 743l108 5c142 6 197 34 245 123l22 40 3 1488 2 1487h235 235z" transform="matrix(.1 0 0 -.1 0 512)"/></svg>