<?xml version="1.0" standalone="no"?>
<!DOCTYPE svg PUBLIC "-//W3C//DTD SVG 20010904//EN"
 "http://www.w3.org/TR/2001/REC-SVG-20010904/DTD/svg10.dtd">
<svg version="1.0" xmlns="http://www.w3.org/2000/svg"
 width="512.000000pt" height="512.000000pt" viewBox="0 0 512.000000 512.000000"
 preserveAspectRatio="xMidYMid meet">
<metadata>
Created by potrace 1.14, written by Peter Selinger 2001-2017
</metadata>
<g transform="translate(0.000000,512.000000) scale(0.100000,-0.100000)"
fill="#000000" stroke="none">
<path d="M0 2560 l0 -2560 2555 0 2555 0 0 2560 0 2560 -2555 0 -2555 0 0
-2560z m750 871 c0 -930 4 -1468 10 -1502 13 -68 54 -127 110 -158 37 -21 61
-25 152 -29 l108 -5 0 -743 0 -744 -440 0 -440 0 0 2315 0 2315 250 0 250 0 0
-1449z m1320 -17 c0 -1023 3 -1478 11 -1508 14 -55 59 -110 112 -138 33 -17
66 -22 150 -26 l107 -5 0 -743 0 -744 -535 0 -535 0 0 745 0 745 83 0 c111 0
178 21 226 70 21 21 43 56 49 78 9 29 12 413 12 1516 l0 1476 160 0 160 0 0
-1466z m1320 -14 c0 -1645 -5 -1518 68 -1593 46 -48 109 -67 219 -67 l83 0 0
-745 0 -745 -530 0 -530 0 0 745 0 745 83 0 c116 0 175 19 225 74 22 24 45 61
51 82 8 27 11 496 11 1512 l0 1472 160 0 160 0 0 -1480z m1470 -835 l0 -2315
-425 0 -425 0 0 744 0 743 108 5 c142 6 197 34 245 123 l22 40 3 1488 2 1487
235 0 235 0 0 -2315z"/>
</g>
</svg>
